<svg width="30" height="31" viewBox="0 0 30 31" fill="none" xmlns="http://www.w3.org/2000/svg">
<path d="M26.6667 3.83341V21.3334H9.16675V3.83341H26.6667ZM26.6667 0.916748H9.16675C7.56258 0.916748 6.25008 2.22925 6.25008 3.83341V21.3334C6.25008 22.9376 7.56258 24.2501 9.16675 24.2501H26.6667C28.2709 24.2501 29.5834 22.9376 29.5834 21.3334V3.83341C29.5834 2.22925 28.2709 0.916748 26.6667 0.916748ZM15.6855 18.4167L10.6251 13.3126L12.6667 11.2563L15.6855 14.2897L23.1667 6.75008L25.2084 8.80633L15.6855 18.4167ZM3.33341 6.75008H0.416748V27.1667C0.416748 28.7709 1.72925 30.0834 3.33341 30.0834H23.7501V27.1667H3.33341V6.75008Z" fill="#4F8FF0"/>
</svg>
